<svg width="60" height="60" viewBox="0 0 60 60" fill="none" xmlns="http://www.w3.org/2000/svg">
    <path fill-rule="evenodd" clip-rule="evenodd" d="M35.2748 1.03255C34.3119 1.22049 33.8154 1.7974 33.4809 3.11675C33.2639 3.97255 33.1816 4.78103 33.1981 5.89189L33.2107 6.73865L33.1088 6.75438C33.0528 6.76305 32.7403 6.80938 32.4145 6.85734C29.7709 7.24664 27.009 8.1329 24.5782 9.3719C24.1828 9.57345 23.1419 10.1483 23.0944 10.1914C23.0629 10.22 23.1589 10.4279 23.2036 10.4279C23.2192 10.4279 23.4359 10.3305 23.6851 10.2113C26.1031 9.05568 28.469 8.31133 30.8913 7.94417C31.9535 7.78317 33.2746 7.67046 33.3263 7.73646C33.3411 7.75545 33.3798 7.92329 33.4123 8.10944C33.6799 9.64422 34.3654 11.525 35.1065 12.758C35.211 12.932 35.2917 13.0782 35.2857 13.0828C35.2797 13.0875 34.9854 13.2405 34.6317 13.4227C32.9605 14.2836 31.7516 14.9944 30.2762 15.9834C29.8914 16.2414 29.5639 16.4525 29.5484 16.4525C29.533 16.4525 29.3985 16.3742 29.2495 16.2784C28.9748 16.1018 28.946 16.0845 28.5556 15.8609C26.8863 14.9044 24.3735 14.0325 22.167 13.6441C21.948 13.6056 21.7351 13.5666 21.6942 13.5576C21.6318 13.5439 21.614 13.5618 21.5848 13.6674C21.5657 13.7368 21.5611 13.8031 21.5747 13.8147C21.5883 13.8263 21.6984 13.871 21.8195 13.9139C22.1338 14.0255 23.1476 14.43 23.4273 14.5555C23.5577 14.6139 23.7557 14.7026 23.8674 14.7525C24.2707 14.9326 25.5698 15.6012 26.0169 15.8586C26.9216 16.3795 28.2961 17.3079 28.273 17.3825C28.2673 17.4007 28.0583 17.5744 27.8083 17.7685C26.3173 18.9264 24.453 20.4961 23.4451 21.4421C22.7485 22.096 22.5233 22.3122 21.97 22.8584L21.3588 23.4616L21.056 23.3217C18.8771 22.3151 15.9733 21.7491 13.2902 21.8081L12.4842 21.8258L12.5679 21.6353C12.6903 21.3567 13.15 20.4457 13.3558 20.074C14.0711 18.7818 15.0049 17.3893 15.9397 16.2209L16.2739 15.8031L16.1974 15.7216C16.1553 15.6768 16.0983 15.6402 16.0706 15.6402C16.0431 15.6402 15.6534 16.0095 15.2048 16.4609C13.9081 17.7658 13.007 18.8546 12.1026 20.2094C11.7088 20.7993 11.1916 21.6343 11.059 21.8941C10.9912 22.0269 10.9827 22.0317 10.743 22.0708C8.92176 22.3676 7.07233 22.8776 5.43605 23.5341C3.17863 24.4398 2.04022 25.1414 1.48877 25.9667C0.940094 26.7878 0.84765 27.7522 1.24038 28.5589C1.40932 28.9059 1.63866 29.159 2.00529 29.4029C2.78367 29.9207 3.57234 29.8963 4.43748 29.3275C4.78752 29.0974 5.05524 28.8357 5.55944 28.2309C6.03435 27.6612 6.78261 26.9208 7.31486 26.4939C7.69165 26.1917 8.37863 25.722 8.7195 25.5334C9.15647 25.2918 9.56575 25.0845 9.56575 25.1048C9.56575 25.1169 9.4681 25.4253 9.34878 25.7904C8.44234 28.5624 8.17069 31.3672 8.55347 34.0016C8.77725 35.542 9.19913 36.9328 9.86238 38.317L10.0813 38.7739L10.0056 39.0955C9.65735 40.5734 8.81835 42.5655 7.98134 43.9016C7.65814 44.4175 7.6145 44.5698 7.72993 44.779C7.80308 44.9115 7.9788 45.0185 8.1233 45.0185C8.17763 45.0185 8.39322 44.95 8.60238 44.8664C9.69625 44.4288 10.9919 43.7125 12.2365 42.8572C12.579 42.6219 12.866 42.4315 12.8742 42.4343C12.8824 42.437 13.0743 42.5998 13.3007 42.796C14.1753 43.5539 15.0818 44.1742 16.1149 44.7219C18.2264 45.8413 20.7424 46.5387 23.2919 46.7112C23.6084 46.7326 23.9849 46.7603 24.1285 46.7728L24.3897 46.7954L24.21 47.2016C23.6726 48.4168 22.9347 49.676 22.0158 50.9463C21.4039 51.7922 21.1586 52.2484 20.9828 52.8682C20.8789 53.2342 20.8408 53.955 20.9044 54.3511C21.0579 55.3065 21.726 56.1881 22.6488 56.6528C22.8813 56.7699 23.374 56.9323 23.4968 56.9323C23.5424 56.9323 23.5797 56.9475 23.5797 56.9662C23.5797 56.9872 23.7721 57 24.0894 57C24.4206 57 24.5918 56.9882 24.5782 56.9662C24.5662 56.9467 24.5971 56.9323 24.6506 56.9323C24.8095 56.9323 25.3088 56.7638 25.611 56.6083C26.4383 56.1824 27.0394 55.4698 27.4501 54.4277C28.0444 52.9198 28.6391 50.1225 29.0107 47.087C29.0571 46.7075 29.1034 46.3887 29.1137 46.3785C29.1239 46.3683 29.4176 46.2956 29.7663 46.217C32.3092 45.644 34.7004 44.7029 37.0689 43.3431C40.0119 41.6535 42.7538 39.3825 44.9542 36.8119C48.2599 32.9501 50.3262 28.5016 50.9153 23.9788L50.9732 23.5343L51.468 23.6654C52.8566 24.0332 54.2443 24.3208 55.2211 24.4432C57.0602 24.6737 58.4062 24.3563 59.2576 23.4914C59.6314 23.1116 59.8631 22.6754 59.9204 22.2434C59.9329 22.1493 59.9564 22.0804 59.9727 22.0905C59.989 22.1005 60.0012 21.9517 59.9999 21.7598C59.9985 21.5594 59.9864 21.4393 59.9715 21.4775C59.9541 21.5221 59.939 21.4606 59.9259 21.2913C59.8856 20.7681 59.5621 20.1286 59.1474 19.7521C58.6013 19.2564 57.9533 19.0248 57.1125 19.0248C56.5957 19.0248 56.3376 19.0723 55.6666 19.291C55.0424 19.4944 54.7323 19.5743 54.2139 19.6652C53.3452 19.8175 51.9763 19.9072 51.3002 19.8561L50.9759 19.8316L50.9353 19.4829C50.7818 18.1625 50.4235 16.7414 49.9409 15.5386C49.7182 14.9837 49.2635 14.0576 48.9887 13.5989C48.8562 13.3778 48.7851 13.2279 48.8091 13.2203C49.8771 12.8807 50.5813 12.5231 51.418 11.8953C52.7837 10.8705 53.5756 9.41647 53.5811 7.92329C53.584 7.15779 53.3941 6.564 52.9644 5.99407C52.0289 4.75361 49.7099 4.23025 47.8091 4.83065C46.8576 5.1312 46.2303 5.54723 45.2405 6.53411C44.5494 7.22315 44.1147 7.78601 43.8118 8.3838L43.7242 8.55662L43.2907 8.34193C41.2445 7.32841 39.1794 6.79943 36.6288 6.63542C36.2937 6.61389 36.0144 6.59142 36.0081 6.58553C35.9892 6.56776 36.1667 6.07665 36.2865 5.81543C36.4082 5.55021 36.6221 5.18962 37.034 4.55561C37.3391 4.08586 37.5411 3.67328 37.6111 3.37652C37.6757 3.1026 37.6749 2.5745 37.6095 2.32354C37.4482 1.70402 36.9826 1.23535 36.358 1.06358C36.1054 0.994099 35.5529 0.978259 35.2748 1.03255ZM35.7877 7.98252C35.7101 8.80461 35.8625 10.0052 36.1585 10.9017C36.2776 11.2628 36.7473 12.253 36.8332 12.3243C36.87 12.3549 37.0002 12.3141 37.4316 12.1369C39.1809 11.4182 40.9652 10.8446 42.7518 10.4266L43.2218 10.3166L43.1411 10.2534C42.9732 10.1218 42.3676 9.75301 41.9602 9.53429C40.2747 8.62949 38.3444 8.03945 36.3073 7.80642C36.0559 7.77765 35.8411 7.75413 35.8298 7.75409C35.8185 7.75409 35.7996 7.85685 35.7877 7.98252ZM45.5991 12.8215C43.5079 12.8984 41.1896 13.3175 38.9665 14.0204L38.427 14.191L38.7127 14.4693C40.3746 16.088 42.7251 17.6514 44.719 18.4642C44.8866 18.5325 45.0693 18.6089 45.1252 18.6341C45.369 18.7439 46.2424 19.0394 46.7286 19.1766C47.168 19.3007 48.1326 19.5325 48.2093 19.5325C48.2585 19.5325 48.1208 18.3827 47.9985 17.7725C47.7539 16.5521 47.4094 15.5355 46.8874 14.4933C46.5175 13.755 45.9801 12.8923 45.856 12.8377C45.8264 12.8247 45.7108 12.8174 45.5991 12.8215ZM36.0534 15.0945C34.4693 15.7788 33.2347 16.412 31.7714 17.2906C31.4456 17.4863 31.1591 17.6646 31.1348 17.687C31.0994 17.7198 31.139 17.7734 31.3379 17.9614C34.9474 21.3719 38.0201 25.4973 40.3987 30.1263C41.017 31.3296 41.6285 32.6328 41.9945 33.5278C42.0554 33.6767 42.1163 33.811 42.1298 33.8262C42.1432 33.8414 42.2377 33.7652 42.3397 33.657C43.8917 32.0096 45.2292 30.1223 46.0576 28.4112C46.7911 26.896 47.3479 25.4006 47.7314 23.9155C47.9336 23.1332 48.0331 22.6463 47.9978 22.6121C47.9818 22.5965 47.8163 22.5229 47.6301 22.4486C47.0127 22.202 46.4589 21.9469 45.6837 21.552C42.7094 20.0369 39.7362 17.8526 37.2724 15.3726C36.9747 15.073 36.7158 14.8287 36.6969 14.8296C36.6781 14.8305 36.3885 14.9498 36.0534 15.0945ZM29.1772 19.0159C27.9351 19.9615 27.2009 20.6095 25.9299 21.8816C24.9602 22.8522 24.2731 23.6008 23.3863 24.653L23.2211 24.849L23.6576 25.2792C27.4005 28.9682 29.468 34.4628 29.4694 40.7246L29.4696 41.5246L29.9181 41.3931C32.1439 40.741 34.0848 39.8906 36.0688 38.6985C37.1671 38.0385 39.0491 36.7176 39.0491 36.6067C39.0491 36.5798 38.9791 36.272 38.8935 35.9227C38.0817 32.6114 37.0728 29.8218 35.7137 27.1309C34.1866 24.1073 32.2359 21.3292 30.0394 19.0497L29.6557 18.6516L29.1772 19.0159ZM13.9493 23.9863C13.8749 23.9939 13.6432 24.0155 13.4346 24.0344C12.6658 24.1042 11.5514 24.3351 11.4975 24.4359C11.4432 24.5373 11.1928 25.4887 11.0694 26.0628C10.9254 26.7319 10.8115 27.4443 10.7278 28.1981C10.6422 28.9688 10.6423 30.8015 10.7279 31.514C10.8975 32.9256 11.1792 34.082 11.6223 35.1862C11.7907 35.6057 11.9933 36.0493 12.0165 36.0493C12.0261 36.0493 12.071 35.9846 12.1162 35.9055C12.1614 35.8263 12.3525 35.4913 12.5408 35.1608C13.5599 33.3728 14.6293 31.7171 15.8432 30.0477C16.0304 29.7904 16.252 29.4853 16.3358 29.3697C17.0376 28.4012 18.3442 26.7895 19.3934 25.5982C19.5784 25.3881 19.7239 25.2121 19.7168 25.2069C19.68 25.1803 19.1141 24.9349 18.8209 24.8183C17.8221 24.4214 16.7759 24.1567 15.7265 24.0355C15.388 23.9965 14.1802 23.963 13.9493 23.9863ZM21.5796 26.9194C21.4664 27.073 21.3408 27.242 21.3005 27.2951C20.8768 27.8521 19.8558 29.3237 19.3936 30.0433C17.827 32.4826 16.4576 35.0844 15.3953 37.6401C15.1335 38.2699 14.7683 39.2028 14.7378 39.3196C14.7269 39.3615 15.4895 39.9362 15.9342 40.2211C18.0073 41.5492 20.7792 42.2768 23.7658 42.2767C24.4339 42.2767 25.505 42.2292 25.6664 42.1925C25.7262 42.1788 25.7459 42.1368 25.7777 41.9536C26.4752 37.949 26.2379 34.3807 25.0791 31.4482C24.5403 30.0843 23.8555 28.9115 22.9736 27.8417C22.7073 27.5187 21.8583 26.6401 21.8125 26.6401C21.7976 26.6401 21.6928 26.7658 21.5796 26.9194Z" fill="black" />
</svg>