<svg width="66" height="66" viewBox="0 0 66 66" fill="none" xmlns="http://www.w3.org/2000/svg">
    <rect x="1" y="1" width="64" height="64" rx="16" fill="white" fill-opacity="0.2" stroke="url(#paint0_linear_1_76)" />
    <rect x="9" y="9" width="48" height="48" rx="16" fill="white" />
    <path fill-rule="evenodd" clip-rule="evenodd" d="M25.7915 21.5577C24.0038 21.9623 22.7055 23.1636 22.1682 24.9104C22.0453 25.3099 22.0354 25.4066 22.0354 26.2022C22.0354 26.9978 22.0453 27.0945 22.1682 27.494C22.6652 29.1096 23.8142 30.2598 25.4282 30.7573C25.8273 30.8803 25.9239 30.8903 26.7187 30.8903C27.5135 30.8903 27.6101 30.8803 28.0092 30.7573C29.6232 30.2598 30.7722 29.1096 31.2692 27.494C31.3921 27.0945 31.402 26.9978 31.402 26.2022C31.402 25.4066 31.3921 25.3099 31.2692 24.9104C30.7713 23.2918 29.611 22.1315 28.0092 21.6506C27.6452 21.5413 27.4628 21.5184 26.8414 21.5039C26.3214 21.4918 26.0129 21.5075 25.7915 21.5577ZM25.3451 23.9037C25.1 24.0336 25.097 24.0636 25.1105 26.2585C25.1225 28.1922 25.1284 28.3108 25.2167 28.4085C25.3438 28.549 25.6389 28.549 25.7661 28.4086C25.849 28.3169 25.8613 28.2093 25.875 27.4565L25.8903 26.6077L26.5622 26.5851C27.3653 26.5579 27.6394 26.4655 27.9442 26.1189C28.5479 25.4324 28.3198 24.3533 27.4938 23.988C27.2594 23.8844 27.1483 23.8716 26.3505 23.8562C25.6881 23.8434 25.4364 23.8553 25.3451 23.9037ZM25.8841 25.2194V25.8091H26.5359C27.2495 25.8091 27.3423 25.78 27.4799 25.5137C27.5734 25.3327 27.5734 25.1061 27.4799 24.9251C27.3423 24.6587 27.2495 24.6297 26.5359 24.6297H25.8841V25.2194ZM25.9332 33.7503V35.8339H26.2407H26.5483L27.0262 35.1956L27.5042 34.5573V33.112V31.6667H26.7187H25.9332V33.7503ZM30.9293 32.152C30.56 32.2068 30.1619 32.3993 29.8902 32.6548C29.7236 32.8115 27.7441 35.4329 27.536 35.7725C27.5061 35.8214 28.1057 35.8339 30.4719 35.8339H33.4455L33.4326 33.9788L33.4198 32.1238L32.3152 32.117C31.7077 32.1133 31.084 32.1291 30.9293 32.152ZM34.2175 32.1271C34.1972 32.1478 34.1807 32.9903 34.1807 33.9993V35.8339H37.1508C38.7843 35.8339 40.1208 35.8221 40.1208 35.8077C40.1208 35.7933 39.6011 35.0802 38.9658 34.2229C37.3788 32.0813 37.4875 32.1476 35.5062 32.112C34.8177 32.0997 34.2378 32.1065 34.2175 32.1271ZM23.2086 36.6165C22.941 36.6818 22.6714 36.8365 22.4639 37.0439C22.0589 37.4488 22.0065 37.6848 22.0005 39.1288C21.9958 40.267 22.021 40.385 22.3396 40.7153C22.5131 40.8951 22.735 41.0429 22.8314 41.0429C22.8561 41.0429 22.8875 40.8273 22.9011 40.5638C22.9419 39.7705 23.1986 39.1931 23.7428 38.6707C24.02 38.4046 24.621 38.0917 25.0393 37.9958C25.3951 37.9142 26.0937 37.9262 26.4447 38.0199C27.6117 38.3315 28.4369 39.4454 28.4369 40.7093V41.0921H32.9955H37.5541L37.5805 40.5638C37.6347 39.4755 38.1286 38.6834 39.0177 38.2587C39.8724 37.8504 40.8347 37.8524 41.6707 38.2641C42.5585 38.7014 43.0464 39.4764 43.1028 40.5392C43.1211 40.8848 43.1481 41.0429 43.1887 41.0429C43.2798 41.0429 43.6354 40.7884 43.7511 40.6404C43.9813 40.3458 43.9991 40.2283 43.9991 39.0057C43.9991 37.9838 43.9881 37.8209 43.9046 37.6008C43.7601 37.22 43.5058 36.9442 43.1275 36.7578L42.7984 36.5956L33.0771 36.5881C27.7305 36.584 23.2896 36.5968 23.2086 36.6165ZM24.996 38.7773C23.8519 39.1438 23.3136 40.456 23.8375 41.6016C24.0655 42.1001 24.5335 42.4879 25.0934 42.6425C25.2896 42.6967 25.114 42.7055 23.7694 42.7094L22.2194 42.7137L22.1126 42.8274C21.9663 42.9833 21.9696 43.2522 22.1195 43.3932L22.2331 43.5H33.0093H43.7856L43.8924 43.3863C44.0386 43.2304 44.0354 42.9616 43.8855 42.8206C43.774 42.7158 43.7425 42.7136 42.2286 42.7094C40.8896 42.7055 40.7153 42.6967 40.9116 42.6425C42.3639 42.2416 42.865 40.4182 41.8313 39.2957C41.4615 38.8941 40.9501 38.6841 40.3417 38.6841C39.2973 38.6841 38.5181 39.3349 38.3437 40.3529C38.1657 41.3919 38.774 42.367 39.7719 42.6425C39.9576 42.6938 38.7455 42.7049 33.0025 42.7049C27.2594 42.7049 26.0474 42.6938 26.2331 42.6425C26.9569 42.4427 27.4912 41.8785 27.6454 41.1511C27.8735 40.0747 27.2959 39.0644 26.2802 38.7632C25.9301 38.6594 25.3441 38.6659 24.996 38.7773Z" fill="black" />
    <defs>
        <linearGradient id="paint0_linear_1_76" x1="1" y1="1" x2="65" y2="65" gradientUnits="userSpaceOnUse">
            <stop stop-color="white" />
            <stop offset="1" stop-color="white" stop-opacity="0" />
        </linearGradient>
    </defs>
</svg>