<svg width="60" height="60" viewBox="0 0 60 60" fill="none" xmlns="http://www.w3.org/2000/svg">
    <path fill-rule="evenodd" clip-rule="evenodd" d="M11.616 0.387608C11.3471 0.658391 11.1441 1.06486 10.9132 1.79472C10.0508 4.51883 7.98955 6.52339 5.18224 7.36761C4.00164 7.72275 3.46388 8.40176 3.72786 9.20438C3.91431 9.77149 4.29574 10.057 5.31184 10.39C6.41865 10.7529 6.95665 11.0178 7.83322 11.6318L8.49428 12.0949L8.20893 12.9346C7.55839 14.8489 7.39925 17.3413 7.80368 19.2814C7.92464 19.8614 8.65399 22.4714 9.42456 25.0814C11.1246 30.8398 11.4639 32.085 11.373 32.2325C11.3345 32.2949 11.1168 32.346 10.889 32.346C10.0396 32.346 8.25972 32.912 7.17287 33.5275C6.24235 34.0546 6.05929 34.5219 6.55922 35.0944C6.93213 35.5212 7.30994 35.5023 8.29451 35.0071C9.62351 34.3385 10.4403 34.1607 12.1342 34.1714C13.3731 34.1793 13.7307 34.2261 14.5017 34.4822C17.9738 35.6354 20.2257 38.737 20.2244 42.3641C20.223 45.9914 17.9815 49.0907 14.5276 50.2411C13.7019 50.5161 13.4108 50.5522 12.0174 50.5522C10.624 50.5522 10.3329 50.5161 9.50722 50.2411C6.94964 49.3893 5.03128 47.462 4.15552 44.8646C3.4717 42.8367 3.80048 40.0417 4.94722 38.1331C5.43676 37.3183 5.46326 37.0061 5.07588 36.6175C4.77513 36.3155 4.33123 36.2484 3.95868 36.4485C3.4466 36.7235 2.46308 38.901 2.14422 40.4654C1.9092 41.6189 1.96956 43.8387 2.266 44.9419C2.53675 45.9492 3.51758 47.8662 4.19907 48.7197C5.45311 50.2902 7.50994 51.6241 9.50722 52.1618C10.8166 52.5143 13.2154 52.5222 14.4692 52.178C14.9508 52.0459 15.3629 51.9548 15.385 51.9757C15.4071 51.9965 15.527 52.558 15.6516 53.2232C16.2703 56.5287 16.3637 56.9104 16.7156 57.573C17.4623 58.9789 18.8693 59.8839 20.451 59.9758C21.8726 60.0584 22.8457 59.7207 23.883 58.7849C24.8094 57.949 25.1669 57.146 25.4912 55.1733C26.09 51.5309 26.0948 51.474 25.8311 51.1182C25.4163 50.5584 24.6079 50.6259 24.3379 51.2429C24.247 51.4506 24.0346 52.5548 23.866 53.6964C23.6973 54.8379 23.511 55.9452 23.4518 56.1569C22.9317 58.0197 20.6425 58.7847 19.1051 57.6094C18.3095 57.0013 18.1266 56.5297 17.6154 53.7701C17.3619 52.4014 17.1546 51.226 17.1547 51.1582C17.1549 51.0904 17.3977 50.8808 17.6945 50.6927C17.9913 50.5045 18.5845 50.0036 19.0129 49.5795C20.5803 48.0278 21.5271 46.2208 21.9512 43.9717C22.1477 42.9294 22.0252 40.7153 21.7102 39.6152C21.1946 37.8146 19.9437 35.8558 18.5748 34.7056C17.2634 33.6037 15.2966 32.6666 13.7623 32.4127L13.3471 32.3439L13.0739 31.2025C12.9236 30.5749 12.0776 27.6054 11.1941 24.6037C9.3893 18.473 9.22912 17.6727 9.4367 15.8249C9.50547 15.2127 9.63168 14.4745 9.71702 14.1845L9.8723 13.6572L10.2454 14.3017C10.4507 14.6561 10.751 15.3624 10.9128 15.8713C11.2696 16.993 11.5007 17.405 11.867 17.5725C12.5166 17.8695 13.3992 17.6045 13.6937 17.0239C13.783 16.8478 13.9463 16.3873 14.0565 16.0007C14.5673 14.2068 15.9276 12.4096 17.5793 11.346C18.1352 10.988 19.1323 10.5586 20.108 10.2572C21.1258 9.94256 21.5163 9.31944 21.2514 8.43199C21.0864 7.87964 20.8383 7.70354 19.697 7.32953C19.2167 7.17205 18.6017 6.91662 18.3302 6.76195L17.8367 6.48062L18.3903 6.39731C19.7769 6.18863 21.2553 6.30826 23.2974 6.79429C25.8505 7.40206 27.2415 7.6214 29.18 7.72193C32.2556 7.88129 34.6684 7.6378 37.9364 6.83846C41.2997 6.01569 43.4884 6.13743 45.9742 7.28535C47.1955 7.84941 48.184 8.55549 49.0939 9.5136C51.013 11.5347 51.9197 13.6653 52.0326 16.4193C52.1084 18.2698 52.0173 18.7377 50.7217 23.142C50.1754 24.9989 49.7301 26.6299 49.7322 26.7665C49.7371 27.0987 49.9715 27.3898 50.3509 27.5345C50.7679 27.6936 51.1919 27.5209 51.3992 27.1077C51.5855 26.736 53.3421 20.7944 53.6608 19.4572C53.9586 18.2084 53.9519 15.3987 53.6482 14.1845C53.0471 11.7807 52.1218 10.0659 50.502 8.35419C49.4558 7.24833 48.5888 6.5767 47.3634 5.92254C44.5368 4.41361 41.4277 4.08201 38.0532 4.92963C34.4582 5.83243 31.7851 6.11083 28.9303 5.87942C26.8204 5.70835 26.4113 5.63828 23.8678 5.01223C21.9479 4.53968 21.8199 4.52363 19.9566 4.52246C18.3157 4.5214 17.8781 4.56136 17.0049 4.79172L15.9797 5.06215L15.7471 4.78996C14.9719 3.88352 14.3628 2.77063 14.0562 1.70074C13.7771 0.726467 13.5844 0.389952 13.1888 0.184551C12.6048 -0.118571 12.0469 -0.0465106 11.616 0.387608ZM12.0391 3.87239C10.9844 5.95839 9.11481 7.76259 7.16913 8.57189L6.5507 8.8292L7.5041 9.30984C9.60447 10.3687 11.3897 12.2269 12.2566 14.2563L12.4934 14.8108L12.8328 14.0905C13.8355 11.9628 15.8665 9.95334 17.8511 9.12564L18.4508 8.8756L17.5603 8.43445C15.5079 7.41776 13.8121 5.69429 12.8452 3.64215L12.5124 2.93608L12.0391 3.87239ZM22.5454 9.88597C22.2101 10.2443 22.2155 10.7911 22.5576 11.1136C22.8509 11.3902 24.4981 11.8268 26.4363 12.1417C29.9064 12.7057 34.5828 12.4616 37.8195 11.5478C39.1838 11.1625 39.5489 10.651 38.9787 9.92358C38.7118 9.58308 38.2936 9.52637 37.5854 9.73493C36.5072 10.0522 34.1915 10.435 32.5773 10.5627C29.914 10.7735 27.0624 10.5228 24.3737 9.84156C23.1998 9.54418 22.8576 9.5525 22.5454 9.88597ZM49.014 29.7691C48.9101 29.83 48.7673 30.0262 48.6968 30.2048C48.3697 31.0336 47.5044 34.9641 46.1882 41.6001L45.4566 45.2885L44.92 45.4406C44.1564 45.657 43.7741 46.0772 43.7741 46.6997C43.7741 47.2764 44.0601 47.7089 44.5862 47.9277C44.8592 48.0411 44.9264 48.1311 44.8828 48.3243C44.8518 48.4617 44.5066 50.3142 44.1157 52.4409C43.3359 56.6834 43.2207 57.0253 42.3593 57.6515C41.5151 58.2652 40.3155 58.3383 39.346 57.8352C38.8486 57.5771 38.1952 56.778 38.0554 56.2571C37.9855 55.9965 37.2209 51.1822 36.3562 45.5586C35.4915 39.9351 34.7262 35.0439 34.6556 34.6894C34.3913 33.3641 33.595 32.3605 32.3463 31.7793C31.8118 31.5305 31.517 31.4738 30.7562 31.4738C29.9953 31.4738 29.7005 31.5305 29.166 31.7793C28.2614 32.2004 27.6117 32.8263 27.196 33.6768C26.877 34.3301 26.7528 34.9941 25.8523 40.8664C25.3066 44.4248 24.8602 47.5226 24.8602 47.7502C24.8602 48.3229 25.2102 48.6573 25.7601 48.6102C26.5275 48.5443 26.514 48.5969 27.6041 41.4854C28.1524 37.9087 28.6598 34.8352 28.7316 34.6553C29.3681 33.0604 31.5846 32.8003 32.515 34.2113C32.8103 34.659 32.9348 35.369 34.5044 45.5568C35.6604 53.0596 36.2582 56.6378 36.4352 57.1131C36.7867 58.057 37.7257 59.0594 38.7172 59.5493C40.2269 60.2951 42.1393 60.1024 43.5045 59.067C44.1883 58.5483 44.8902 57.5636 45.1132 56.8103C45.2049 56.5004 45.5847 54.5864 45.9572 52.557C46.3297 50.5276 46.6665 48.8671 46.7056 48.8671C46.7447 48.8671 47.0155 49.0779 47.3071 49.3357C48.0325 49.9765 48.6742 50.9814 49.0257 52.0269C49.3771 53.0723 49.8512 53.5017 50.5332 53.3924C51.1201 53.2984 51.4372 52.9211 51.7683 51.9237C52.4069 49.9995 53.8893 48.5632 55.7581 48.0582C56.3958 47.8858 56.8264 47.5281 56.9439 47.0729C57.1601 46.2356 56.7608 45.7285 55.5867 45.3494C53.8284 44.7819 52.4747 43.5096 51.8832 41.8689C51.3605 40.4188 51.0736 40.0793 50.3706 40.0793C49.6676 40.0793 49.3806 40.4188 48.8579 41.8689C48.6472 42.4533 47.7565 43.8808 47.6618 43.7858C47.5907 43.7143 49.2505 35.5833 49.8774 32.9319C50.4369 30.5656 50.4635 30.1746 50.0855 29.8674C49.7989 29.6344 49.3186 29.5904 49.014 29.7691ZM12.7531 41.2769L10.1492 43.8806L9.4165 43.1517C8.58511 42.3247 8.2289 42.2303 7.75068 42.7104C7.20358 43.2593 7.33212 43.6028 8.54401 44.8299C9.67674 45.9769 10.0762 46.1967 10.5576 45.9381C10.708 45.8573 12.1226 44.4885 13.701 42.8961C16.6332 39.9381 16.7296 39.811 16.4982 39.2058C16.4148 38.9875 15.8616 38.6733 15.561 38.6733C15.4486 38.6733 14.185 39.8449 12.7531 41.2769ZM49.9844 43.7484C49.4792 44.6468 48.5919 45.5667 47.6465 46.1722C47.1937 46.4622 46.8218 46.7258 46.8199 46.7581C46.818 46.7903 47.1347 46.9996 47.5236 47.2231C48.3387 47.6917 49.5536 48.9304 50.0271 49.7759L50.353 50.3577L50.8949 49.5245C51.4978 48.5978 52.6164 47.5172 53.4109 47.0942C53.6972 46.9418 53.9305 46.7906 53.9292 46.7583C53.9279 46.726 53.6541 46.5413 53.3209 46.348C52.5059 45.8753 51.2287 44.5876 50.7756 43.7818C50.5727 43.4209 50.3904 43.1258 50.3706 43.1258C50.3507 43.1258 50.1769 43.4059 49.9844 43.7484Z" fill="black" />
</svg>