<svg width="66" height="66" viewBox="0 0 66 66" fill="none" xmlns="http://www.w3.org/2000/svg">
    <rect x="1" y="1" width="64" height="64" rx="16" fill="white" fill-opacity="0.2" stroke="url(#paint0_linear_51_290)" />
    <rect x="9" y="9" width="48" height="48" rx="10" fill="#FAE8D5" />
    <path fill-rule="evenodd" clip-rule="evenodd" d="M24 31.8069C24 26.9365 28.07 22.9999 32.9931 22.9999C37.93 22.9999 42 26.9365 42 31.8069C42 34.2612 41.1074 36.5397 39.6383 38.471C38.0176 40.6012 36.0199 42.4573 33.7714 43.9142C33.2568 44.2509 32.7923 44.2763 32.2275 43.9142C29.9662 42.4573 27.9686 40.6012 26.3617 38.471C24.8915 36.5397 24 34.2612 24 31.8069ZM30.0291 32.0812C30.0291 33.7128 31.3605 34.9961 32.993 34.9961C34.6265 34.9961 35.9707 33.7128 35.9707 32.0812C35.9707 30.4624 34.6265 29.1166 32.993 29.1166C31.3605 29.1166 30.0291 30.4624 30.0291 32.0812Z" fill="black" />
    <defs>
        <linearGradient id="paint0_linear_51_290" x1="1" y1="1" x2="65" y2="65" gradientUnits="userSpaceOnUse">
            <stop stop-color="white" />
            <stop offset="1" stop-color="white" stop-opacity="0" />
        </linearGradient>
    </defs>
</svg>