<svg width="66" height="66" viewBox="0 0 66 66" fill="none" xmlns="http://www.w3.org/2000/svg">
    <rect x="1" y="1" width="64" height="64" rx="16" fill="white" fill-opacity="0.2" stroke="url(#paint0_linear_51_292)" />
    <rect x="9" y="9" width="48" height="48" rx="10" fill="#FAE8D5" />
    <path d="M25 41C24.45 41 23.975 40.8083 23.575 40.425C23.1917 40.025 23 39.55 23 39V27C23 26.45 23.1917 25.9833 23.575 25.6C23.975 25.2 24.45 25 25 25H41C41.55 25 42.0167 25.2 42.4 25.6C42.8 25.9833 43 26.45 43 27V39C43 39.55 42.8 40.025 42.4 40.425C42.0167 40.8083 41.55 41 41 41H25ZM33 34L41 29V27L33 32L25 27V29L33 34Z" fill="#1D1B20" />
    <defs>
        <linearGradient id="paint0_linear_51_292" x1="1" y1="1" x2="65" y2="65" gradientUnits="userSpaceOnUse">
            <stop stop-color="white" />
            <stop offset="1" stop-color="white" stop-opacity="0" />
        </linearGradient>
    </defs>
</svg>