<svg width="116" height="110" viewBox="0 0 116 110" fill="none" xmlns="http://www.w3.org/2000/svg">
    <path fill-rule="evenodd" clip-rule="evenodd" d="M24.8072 0.147961C21.1784 0.759843 18.468 2.96454 16.5164 6.89233C14.8052 10.3359 14.0565 14.4651 13.641 22.7505C13.4782 25.9962 13.4162 34.7408 13.557 34.5998C13.6 34.5568 13.784 33.3552 13.9659 31.9298C14.8162 25.2691 16.3585 16.2253 17.0461 13.8688C18.9768 7.25195 22.8386 3.86854 28.0059 4.26638C28.729 4.322 30.3195 4.55231 31.5404 4.77823C35.7428 5.55569 38.6096 6.42797 45.3086 8.96724C49.6874 10.6271 52.0094 11.3848 54.078 11.8292C56.0348 12.2495 59.6605 12.5735 61.0493 12.4521L62.1166 12.3588L61.3046 12.6789C60.858 12.8549 58.8849 13.5432 56.9199 14.2084C49.3303 16.7781 43.4988 18.0376 39.2229 18.031C37.1805 18.0277 35.8102 17.7774 33.8244 17.0448C32.0401 16.3866 31.2373 16.4367 30.418 17.2573C29.4762 18.2004 29.3926 19.6453 30.2189 20.6973C30.7819 21.4141 31.1346 21.5139 32.9664 21.4749C39.5891 21.3337 46.3625 19.893 53.3472 17.1397C56.9257 15.729 72.8286 8.46335 72.6774 8.30819C72.6517 8.28184 70.9958 8.91226 68.9976 9.70907C66.9994 10.5061 64.7219 11.3985 63.9366 11.6924L62.5086 12.2269L60.5262 12.0408C56.9467 11.7049 53.6281 10.8483 50.2815 9.39614C49.4667 9.04254 46.9731 7.77047 44.7402 6.56931C42.5072 5.36799 39.7668 3.94889 38.6503 3.41556C32.9258 0.681609 28.2242 -0.428139 24.8072 0.147961ZM83.4447 4.45245C81.5267 4.81694 75.5063 6.85736 75.7194 7.07059C75.7545 7.10573 76.4352 6.91283 77.2321 6.64185C80.3603 5.57781 82.4661 5.12012 84.2025 5.12695C88.8887 5.14517 91.9814 7.42549 93.6921 12.1242C94.9568 15.5976 95.4549 19.7427 95.6248 28.2069C95.7209 33.0011 95.7643 33.6302 96.0256 34.0292C96.9295 35.4094 98.8097 35.4695 99.9153 34.1533C100.652 33.2768 100.624 32.8624 99.5491 28.7347C99.0067 26.651 98.3797 23.9216 98.1559 22.6692C96.9758 16.0663 96.3664 13.7655 95.1559 11.3414C93.3426 7.71013 91.1938 5.54626 88.5217 4.66047C87.2861 4.25076 84.9987 4.15708 83.4447 4.45245ZM97.6002 55.3615V67.1535H98.331H99.0617V55.3615V43.5695H98.331H97.6002V55.3615ZM50.209 45.0447C48.2552 45.4299 46.4668 46.7994 45.7089 48.4908C45.0955 49.8596 45.0591 51.8346 45.6236 53.1238C46.3369 54.7524 47.5472 55.5121 50.9924 56.494C54.8969 57.6069 56.0928 58.2539 56.6937 59.5788C57.0438 60.3509 57.0963 61.914 56.8103 63.0513C56.549 64.0912 55.4413 65.1877 54.2404 65.5957C52.2275 66.2794 48.7296 66.0628 46.3867 65.1092C45.8523 64.8917 45.3911 64.7138 45.3618 64.7138C45.3324 64.7138 45.3086 65.1105 45.3086 65.5953V66.4767L46.0799 66.73C48.5149 67.5292 51.4502 67.7657 53.5096 67.3285C54.9609 67.0205 56.37 66.289 57.1547 65.4364C58.1866 64.3151 58.514 63.4456 58.5906 61.6235C58.6762 59.586 58.3138 58.5426 57.1593 57.5031C56.2122 56.6502 55.4665 56.2792 53.5073 55.6862C48.4935 54.1686 47.889 53.8808 47.1854 52.6754C46.7675 51.9596 46.7537 49.9892 47.16 49.0553C47.5626 48.1302 48.4597 47.2317 49.4104 46.8013C50.1678 46.4585 50.4947 46.4163 52.3728 46.4198C54.5559 46.424 55.0941 46.5443 57.3665 47.5368L57.9755 47.8028V46.9249V46.047L57.1229 45.7017C55.2743 44.953 52.1706 44.6581 50.209 45.0447ZM0 56.1551V67.1535H0.730783H1.46157L1.46124 62.4774L1.46108 57.8012L3.79277 57.85C8.76908 57.9541 11.8379 56.6622 13.0909 53.9357C13.5096 53.0247 13.557 52.7484 13.5585 51.214C13.5599 49.6724 13.5159 49.4162 13.107 48.582C12.5979 47.5438 11.8856 46.8457 10.744 46.2662C9.16272 45.4637 8.30316 45.3328 4.01931 45.2419L0 45.1565V56.1551ZM1.49973 51.4757L1.54276 56.3374L3.73511 56.3854C7.1443 56.4599 9.18091 55.9692 10.4939 54.7569C12.5529 52.8561 12.4813 49.3245 10.3544 47.8769C9.17929 47.0772 7.78398 46.7969 4.50406 46.7021L1.45669 46.6141L1.49973 51.4757ZM90.4547 47.5544V48.449H91.2667H92.0787V47.5544V46.6598H91.2667H90.4547V47.5544ZM23.9752 51.5643C22.6955 51.8096 21.1854 52.5895 20.2203 53.5036L19.3252 54.3515V53.8627C19.3252 53.5938 19.2787 53.0342 19.2219 52.6193C19.1223 51.8916 19.0991 51.8646 18.5723 51.8646H18.026V59.509V67.1535H18.7568H19.4876V61.6327V56.112L20.3679 55.1597C21.6684 53.7528 23.5606 52.8476 25.212 52.8424L25.821 52.8405V52.1085C25.821 51.3875 25.8132 51.3769 25.2932 51.3948C25.003 51.4048 24.4098 51.4812 23.9752 51.5643ZM33.2344 51.5472C30.7577 51.9635 28.6837 54.1011 28.0199 56.9218C27.8849 57.495 27.7746 58.6592 27.7746 59.509C27.7746 63.9532 29.8934 66.8962 33.5097 67.4747C35.7218 67.8287 37.8239 67.1561 39.2606 65.6349C40.9057 63.8927 41.4919 62.0257 41.363 58.9398C41.2727 56.7775 40.9606 55.6291 40.0971 54.2812C38.6804 52.07 36.1418 51.0586 33.2344 51.5472ZM68.5746 51.5481C67.5504 51.7505 66.8123 52.1521 65.8567 53.0269L64.9983 53.8124L64.8973 53.3061C64.8416 53.0277 64.7961 52.5893 64.7961 52.3322C64.7961 51.8951 64.7537 51.8646 64.1465 51.8646H63.497V59.509V67.1535H64.2277H64.9585V61.305V55.4567L65.8791 54.5564C67.2421 53.2237 67.9615 52.9218 69.7758 52.9218C71.1716 52.9218 71.3077 52.9525 71.9682 53.4169C72.3555 53.6893 72.855 54.2383 73.0783 54.6367L73.4843 55.3615L73.5326 61.2575L73.5806 67.1535H74.3039H75.0271V61.6078C75.0271 55.356 74.9267 55.8913 76.392 54.3259C77.352 53.3004 78.4103 52.8432 79.8178 52.8457C81.5959 52.8488 82.6203 53.4527 83.2609 54.8758C83.5211 55.4534 83.5584 56.1588 83.6029 61.3388L83.6528 67.1535H84.385H85.1173L85.0578 61.1762C84.9911 54.4575 84.9653 54.2903 83.7905 52.9535C82.8559 51.8901 81.7989 51.4801 79.9802 51.475C78.0735 51.47 77.0429 51.9169 75.6327 53.3603C75.0888 53.917 74.6159 54.2887 74.5818 54.1862C74.5477 54.0839 74.3057 53.704 74.0439 53.3421C72.9314 51.8039 70.8066 51.107 68.5746 51.5481ZM108.639 51.5884C105.363 52.3288 103.441 55.5757 103.661 59.997C103.888 64.5825 106.113 67.1236 110.267 67.5443C111.468 67.666 113.552 67.4372 114.692 67.0584C115.458 66.8041 115.464 66.7963 115.464 66.0833C115.464 65.6879 115.439 65.3644 115.408 65.3644C115.377 65.3644 114.921 65.5241 114.393 65.7194C113.598 66.014 113.074 66.0764 111.323 66.0854C109.494 66.0948 109.111 66.0498 108.461 65.7487C107.423 65.2681 106.422 64.3182 105.932 63.3498C105.557 62.6086 105.09 60.6253 105.076 59.7123L105.07 59.3464H110.535H116L115.903 57.7513C115.741 55.0861 114.912 53.3081 113.377 52.3333C112.096 51.5191 110.238 51.227 108.639 51.5884ZM90.6171 59.509V67.1535H91.3479H92.0787V59.509V51.8646H91.3479H90.6171V59.509ZM108.934 52.898C107.082 53.4162 105.624 55.1894 105.306 57.3071L105.196 58.0452H109.861H114.527L114.41 57.1129C114.161 55.1151 113.323 53.7531 111.972 53.1513C111.062 52.7458 109.842 52.6441 108.934 52.898ZM32.6462 53.1775C31.127 53.8677 30.1464 55.0225 29.6034 56.7609C29.2321 57.9492 29.2263 61.0508 29.593 62.2223C30.1804 64.0986 31.5599 65.5812 33.1232 66.0161C33.9848 66.2558 35.5739 66.2101 36.42 65.9214C38.7374 65.1306 40.1591 62.2075 39.8894 58.7887C39.6534 55.7981 38.4202 53.7793 36.4101 53.0932C35.343 52.729 33.5447 52.7694 32.6462 53.1775ZM16.6138 73.6523C15.9481 74.0587 15.5808 74.627 15.4829 75.4017C15.4199 75.9002 15.5494 76.3127 16.162 77.563C16.5786 78.4128 17.7949 81.0046 18.8653 83.3227C24.3101 95.1147 27.6905 100.704 32.1364 105.265C33.5545 106.72 35.7473 108.565 36.9629 109.325C39.656 111.01 41.8119 109.572 43.9571 104.659C44.3443 103.772 44.638 103.024 44.6098 102.995C44.5815 102.967 44.1786 103.692 43.7143 104.607C42.0736 107.84 40.5245 109.442 39.0381 109.442C37.2394 109.442 33.0871 105.536 30.0526 100.99C25.5747 94.2816 21.5225 84.1668 20.2112 76.4245C20.0671 75.5746 19.8247 74.6597 19.6724 74.3913C19.1149 73.4093 17.6078 73.0453 16.6138 73.6523ZM93.7701 74.3785C93.1338 74.6561 92.5972 75.3355 92.4948 75.9936C91.8894 79.8817 91.6487 81.1782 91.182 83.0662C89.6381 89.3116 87.3051 94.3444 82.4803 101.838C81.5155 103.337 80.7571 104.563 80.7951 104.563C80.9206 104.563 84.2431 100.201 85.4875 98.4023C87.7408 95.1459 89.3115 92.3318 93.1434 84.6857C97.3723 76.2472 97.3995 76.1704 96.5116 75.1137C95.7625 74.222 94.7509 73.9509 93.7701 74.3785ZM54.945 80.4798C53.1341 81.3032 51.212 84.3074 49.1624 89.5176C48.3106 91.683 45.4667 100.205 45.4747 100.568C45.4768 100.663 46.0985 99.1344 46.8564 97.1715C50.2058 88.496 52.4093 84.187 54.4245 82.3723C55.9291 81.0175 56.8087 81.3753 58.6124 84.0762C59.8078 85.866 62.0703 90.3466 63.824 94.3971C64.56 96.0967 65.5964 98.4389 66.1273 99.6018C66.6582 100.765 67.3553 102.375 67.6767 103.18C68.3143 104.778 68.5504 105.131 69.213 105.474C70.7119 106.25 72.4268 105.148 72.4281 103.407C72.4287 102.583 72.3052 102.372 70.7528 100.549C68.7659 98.2161 66.9589 95.3359 63.5773 89.111C60.2398 82.9673 58.9973 81.2645 57.2824 80.485C56.4166 80.0914 55.8021 80.09 54.945 80.4798Z" fill="#2C2824" />
</svg>