<svg width="65" height="52" viewBox="0 0 65 52" fill="none" xmlns="http://www.w3.org/2000/svg">
    <path d="M60.5859 32.1562C59.9453 32.1562 59.3698 32.0521 58.8594 31.8438C58.349 31.6354 57.9141 31.3464 57.5547 30.9766C57.2005 30.6016 56.9271 30.1667 56.7344 29.6719C56.5469 29.1719 56.4531 28.6354 56.4531 28.0625V27.75C56.4531 27.099 56.5469 26.5078 56.7344 25.9766C56.9219 25.4401 57.1875 24.9792 57.5312 24.5938C57.875 24.2083 58.2865 23.9115 58.7656 23.7031C59.2448 23.4948 59.7734 23.3906 60.3516 23.3906C60.9505 23.3906 61.4792 23.4922 61.9375 23.6953C62.3958 23.8932 62.7786 24.1745 63.0859 24.5391C63.3932 24.9036 63.625 25.3411 63.7812 25.8516C63.9375 26.3568 64.0156 26.9167 64.0156 27.5312V28.3984H57.3906V26.9766H61.9844V26.8203C61.974 26.4922 61.9115 26.1927 61.7969 25.9219C61.6823 25.6458 61.5052 25.4271 61.2656 25.2656C61.026 25.099 60.7161 25.0156 60.3359 25.0156C60.0286 25.0156 59.7604 25.0833 59.5312 25.2188C59.3073 25.349 59.1198 25.5365 58.9688 25.7812C58.8229 26.0208 58.7135 26.3073 58.6406 26.6406C58.5677 26.974 58.5312 27.3438 58.5312 27.75V28.0625C58.5312 28.4167 58.5781 28.7448 58.6719 29.0469C58.7708 29.349 58.9141 29.612 59.1016 29.8359C59.2943 30.0547 59.5234 30.2266 59.7891 30.3516C60.0599 30.4714 60.3672 30.5312 60.7109 30.5312C61.1432 30.5312 61.5339 30.4479 61.8828 30.2812C62.237 30.1094 62.5443 29.8568 62.8047 29.5234L63.8438 30.6016C63.6667 30.862 63.4271 31.112 63.125 31.3516C62.8281 31.5911 62.4688 31.7865 62.0469 31.9375C61.625 32.0833 61.138 32.1562 60.5859 32.1562Z" fill="black" />
    <path d="M54.8203 20V32H52.75V20H54.8203Z" fill="black" />
    <path d="M50.6641 23.5469V32H48.5938V23.5469H50.6641ZM48.4531 21.3359C48.4531 21.0286 48.5573 20.7734 48.7656 20.5703C48.9792 20.3672 49.2656 20.2656 49.625 20.2656C49.9844 20.2656 50.2682 20.3672 50.4766 20.5703C50.6901 20.7734 50.7969 21.0286 50.7969 21.3359C50.7969 21.638 50.6901 21.8906 50.4766 22.0938C50.2682 22.2969 49.9844 22.3984 49.625 22.3984C49.2656 22.3984 48.9792 22.2969 48.7656 22.0938C48.5573 21.8906 48.4531 21.638 48.4531 21.3359Z" fill="black" />
    <path d="M36.625 25.2812V32H34.5625V23.5469H36.5078L36.625 25.2812ZM36.3203 27.4688H35.6875C35.6875 26.8802 35.7578 26.3385 35.8984 25.8438C36.0443 25.349 36.2578 24.9193 36.5391 24.5547C36.8203 24.1849 37.1667 23.8984 37.5781 23.6953C37.9948 23.4922 38.4766 23.3906 39.0234 23.3906C39.4036 23.3906 39.7526 23.4479 40.0703 23.5625C40.388 23.6719 40.6615 23.8464 40.8906 24.0859C41.125 24.3203 41.3047 24.6276 41.4297 25.0078C41.5547 25.3828 41.6172 25.8333 41.6172 26.3594V32H39.5547V26.5703C39.5547 26.1745 39.4974 25.8646 39.3828 25.6406C39.2734 25.4167 39.1146 25.2604 38.9062 25.1719C38.6979 25.0781 38.4479 25.0312 38.1562 25.0312C37.8333 25.0312 37.5547 25.0964 37.3203 25.2266C37.0911 25.3516 36.901 25.526 36.75 25.75C36.6042 25.974 36.4948 26.2318 36.4219 26.5234C36.3542 26.8151 36.3203 27.1302 36.3203 27.4688ZM41.4609 27.0859L40.6094 27.2422C40.6146 26.7109 40.6875 26.2135 40.8281 25.75C40.9688 25.2812 41.1745 24.8724 41.4453 24.5234C41.7214 24.1693 42.0625 23.8932 42.4688 23.6953C42.8802 23.4922 43.3542 23.3906 43.8906 23.3906C44.3073 23.3906 44.6823 23.4505 45.0156 23.5703C45.3542 23.6849 45.6432 23.8698 45.8828 24.125C46.1224 24.375 46.3047 24.7005 46.4297 25.1016C46.5599 25.5026 46.625 25.9922 46.625 26.5703V32H44.5469V26.5625C44.5469 26.151 44.4896 25.8359 44.375 25.6172C44.2656 25.3984 44.1068 25.2474 43.8984 25.1641C43.6901 25.0755 43.4453 25.0312 43.1641 25.0312C42.8776 25.0312 42.6276 25.0859 42.4141 25.1953C42.2057 25.2995 42.0286 25.4453 41.8828 25.6328C41.7422 25.8203 41.6354 26.0391 41.5625 26.2891C41.4948 26.5339 41.4609 26.7995 41.4609 27.0859Z" fill="black" />
    <path d="M30.9141 29.0469C30.9141 28.8281 30.8802 28.6328 30.8125 28.4609C30.75 28.2839 30.6328 28.125 30.4609 27.9844C30.2943 27.8385 30.0573 27.6979 29.75 27.5625C29.4479 27.4219 29.0573 27.276 28.5781 27.125C28.0469 26.9583 27.5521 26.7708 27.0938 26.5625C26.6354 26.3542 26.2318 26.112 25.8828 25.8359C25.5391 25.5599 25.2708 25.2422 25.0781 24.8828C24.8854 24.5182 24.7891 24.0964 24.7891 23.6172C24.7891 23.1484 24.888 22.7214 25.0859 22.3359C25.2891 21.9505 25.5755 21.6198 25.9453 21.3438C26.3151 21.0625 26.75 20.8464 27.25 20.6953C27.7552 20.5443 28.3125 20.4688 28.9219 20.4688C29.7656 20.4688 30.4948 20.6224 31.1094 20.9297C31.7292 21.237 32.2083 21.6536 32.5469 22.1797C32.8854 22.7057 33.0547 23.2969 33.0547 23.9531H30.9141C30.9141 23.599 30.8385 23.2865 30.6875 23.0156C30.5417 22.7448 30.3177 22.5312 30.0156 22.375C29.7188 22.2188 29.3438 22.1406 28.8906 22.1406C28.4531 22.1406 28.0885 22.2057 27.7969 22.3359C27.5104 22.4661 27.2943 22.6432 27.1484 22.8672C27.0078 23.0911 26.9375 23.3411 26.9375 23.6172C26.9375 23.8255 26.987 24.013 27.0859 24.1797C27.1849 24.3411 27.3333 24.4948 27.5312 24.6406C27.7292 24.7812 27.974 24.9141 28.2656 25.0391C28.5625 25.1589 28.9062 25.2786 29.2969 25.3984C29.9219 25.5859 30.4688 25.7943 30.9375 26.0234C31.4115 26.2526 31.8047 26.513 32.1172 26.8047C32.4349 27.0964 32.6719 27.4245 32.8281 27.7891C32.9896 28.1536 33.0703 28.5677 33.0703 29.0312C33.0703 29.5208 32.974 29.9583 32.7812 30.3438C32.5885 30.7292 32.3125 31.0573 31.9531 31.3281C31.5938 31.599 31.1615 31.8047 30.6562 31.9453C30.1562 32.0859 29.5964 32.1562 28.9766 32.1562C28.4245 32.1562 27.8776 32.0833 27.3359 31.9375C26.7995 31.7865 26.3125 31.5625 25.875 31.2656C25.4375 30.9635 25.0885 30.5833 24.8281 30.125C24.5677 29.6615 24.4375 29.1198 24.4375 28.5H26.5938C26.5938 28.8594 26.651 29.1667 26.7656 29.4219C26.8854 29.6719 27.0521 29.8776 27.2656 30.0391C27.4844 30.1953 27.7396 30.3099 28.0312 30.3828C28.3229 30.4557 28.638 30.4922 28.9766 30.4922C29.4141 30.4922 29.7734 30.4323 30.0547 30.3125C30.3411 30.1875 30.5547 30.0156 30.6953 29.7969C30.8411 29.5781 30.9141 29.3281 30.9141 29.0469Z" fill="black" />
    <path d="M15.375 27.8594V27.6953C15.375 27.0755 15.4635 26.5052 15.6406 25.9844C15.8177 25.4583 16.0755 25.0026 16.4141 24.6172C16.7526 24.2318 17.1667 23.9323 17.6562 23.7188C18.1458 23.5 18.7031 23.3906 19.3281 23.3906C19.9635 23.3906 20.526 23.5 21.0156 23.7188C21.5104 23.9323 21.9271 24.2318 22.2656 24.6172C22.6042 25.0026 22.862 25.4583 23.0391 25.9844C23.2161 26.5052 23.3047 27.0755 23.3047 27.6953V27.8594C23.3047 28.474 23.2161 29.0443 23.0391 29.5703C22.862 30.0911 22.6042 30.5469 22.2656 30.9375C21.9271 31.3229 21.513 31.6224 21.0234 31.8359C20.5339 32.0495 19.974 32.1562 19.3438 32.1562C18.7188 32.1562 18.1589 32.0495 17.6641 31.8359C17.1693 31.6224 16.7526 31.3229 16.4141 30.9375C16.0755 30.5469 15.8177 30.0911 15.6406 29.5703C15.4635 29.0443 15.375 28.474 15.375 27.8594ZM17.4375 27.6953V27.8594C17.4375 28.2292 17.474 28.5755 17.5469 28.8984C17.6198 29.2214 17.7318 29.5052 17.8828 29.75C18.0339 29.9948 18.2292 30.1875 18.4688 30.3281C18.7135 30.4635 19.0052 30.5312 19.3438 30.5312C19.6771 30.5312 19.9635 30.4635 20.2031 30.3281C20.4427 30.1875 20.638 29.9948 20.7891 29.75C20.9453 29.5052 21.0599 29.2214 21.1328 28.8984C21.2057 28.5755 21.2422 28.2292 21.2422 27.8594V27.6953C21.2422 27.3307 21.2057 26.9896 21.1328 26.6719C21.0599 26.349 20.9453 26.0651 20.7891 25.8203C20.638 25.5703 20.4401 25.375 20.1953 25.2344C19.9557 25.0885 19.6667 25.0156 19.3281 25.0156C18.9948 25.0156 18.7083 25.0885 18.4688 25.2344C18.2292 25.375 18.0339 25.5703 17.8828 25.8203C17.7318 26.0651 17.6198 26.349 17.5469 26.6719C17.474 26.9896 17.4375 27.3307 17.4375 27.6953Z" fill="black" />
    <path d="M12.2578 25.2734V32H10.1953V23.5469H12.1484L12.2578 25.2734ZM14.8281 23.4922L14.7969 25.4141C14.6823 25.3932 14.5521 25.3776 14.4062 25.3672C14.2656 25.3568 14.1328 25.3516 14.0078 25.3516C13.6901 25.3516 13.4115 25.3958 13.1719 25.4844C12.9323 25.5677 12.7318 25.6901 12.5703 25.8516C12.4141 26.013 12.2943 26.2109 12.2109 26.4453C12.1276 26.6745 12.0807 26.9349 12.0703 27.2266L11.625 27.1719C11.625 26.6354 11.6797 26.138 11.7891 25.6797C11.8984 25.2214 12.0573 24.8203 12.2656 24.4766C12.474 24.1328 12.7344 23.8672 13.0469 23.6797C13.3646 23.487 13.7292 23.3906 14.1406 23.3906C14.2552 23.3906 14.3776 23.401 14.5078 23.4219C14.6432 23.4375 14.75 23.4609 14.8281 23.4922Z" fill="black" />
    <path d="M4.46094 27.8516H1.53125V26.1641H4.46094C4.9401 26.1641 5.32812 26.0859 5.625 25.9297C5.92708 25.7682 6.14844 25.5495 6.28906 25.2734C6.42969 24.9922 6.5 24.6719 6.5 24.3125C6.5 23.9635 6.42969 23.638 6.28906 23.3359C6.14844 23.0339 5.92708 22.7891 5.625 22.6016C5.32812 22.4141 4.9401 22.3203 4.46094 22.3203H2.23438V32H0.0859375V20.625H4.46094C5.34635 20.625 6.10156 20.7839 6.72656 21.1016C7.35677 21.4141 7.83594 21.849 8.16406 22.4062C8.4974 22.9583 8.66406 23.5885 8.66406 24.2969C8.66406 25.0312 8.4974 25.6641 8.16406 26.1953C7.83594 26.7266 7.35677 27.1354 6.72656 27.4219C6.10156 27.7083 5.34635 27.8516 4.46094 27.8516Z" fill="black" />
    <path fill-rule="evenodd" clip-rule="evenodd" d="M19.6523 0.0730435C18.1194 0.329227 16.8555 1.32522 15.9722 2.97304C15.2342 4.34966 14.8266 6.30554 14.6078 9.52097C14.534 10.6038 14.4448 15.7826 14.5065 15.3964C14.5252 15.2796 14.6208 14.5947 14.719 13.8745C14.9437 12.2261 15.6386 8.02931 15.8266 7.18495C16.36 4.78904 17.4926 3.00376 18.944 2.27081C19.4018 2.03962 20.2687 1.84042 20.817 1.84042C21.4499 1.84042 23.5183 2.19096 24.7326 2.50399C25.837 2.78863 27.6286 3.39656 29.9443 4.2725C32.6069 5.27961 33.9239 5.58102 35.8579 5.62598C37.0719 5.65415 37.0777 5.64523 35.9293 5.51611C33.9094 5.28909 32.1281 4.67996 29.6894 3.38226C29.0224 3.02733 28.0659 2.51872 27.5638 2.25191C24.246 0.489139 21.5709 -0.247628 19.6523 0.0730435ZM47.0099 2.01555C46.4893 2.10934 45.0225 2.53719 45.068 2.58193C45.082 2.59566 45.4785 2.51128 45.9492 2.39448C48.489 1.76425 50.5654 2.60408 51.6285 4.69157C52.4559 6.31637 52.8146 8.7503 52.8708 13.1206C52.8976 15.2038 52.9104 15.3923 53.0388 15.5982C53.4396 16.2405 54.443 16.2544 54.8309 15.623C55.0925 15.1975 55.0778 15.061 54.552 13.0209C54.2767 11.9525 53.9338 10.4094 53.7901 9.59176C53.3267 6.95354 52.9236 5.68515 52.14 4.39794C51.3528 3.10491 50.3928 2.32107 49.2273 2.01973C48.724 1.88962 47.7194 1.88771 47.0099 2.01555ZM39.816 4.64138C34.0436 6.97485 29.1954 8.30015 26.4442 8.29675C25.4916 8.29555 24.8348 8.17372 23.885 7.82212C23.1029 7.53259 22.9392 7.52176 22.5649 7.73469C21.8866 8.12077 21.8321 9.1901 22.468 9.63954C22.6602 9.77538 22.7658 9.78926 23.5111 9.7768C26.5475 9.72604 29.9205 9.00832 33.168 7.72209C34.4619 7.20965 40.525 4.48989 40.7015 4.34279C40.7953 4.26457 40.5106 4.36056 39.816 4.64138ZM16.6243 35.2495C16.3454 35.4183 16.1989 35.6343 16.1422 35.9605C16.0947 36.2341 15.9803 35.9653 17.7238 39.6769C19.5996 43.6701 20.5189 45.3742 21.7911 47.2158C23.0422 49.0271 24.4657 50.5168 25.8577 51.4721C26.8991 52.1866 27.4537 52.1776 28.1915 51.4342C28.4268 51.197 28.6962 50.8597 28.79 50.6845C28.991 50.3094 28.9353 50.3568 28.4953 50.9354C27.9373 51.6693 27.3333 51.9717 26.7939 51.7873C26.3395 51.6318 25.587 51.0525 24.7683 50.2276C23.3823 48.8313 22.3804 47.3479 21.1321 44.8444C20.258 43.0914 19.7519 41.8685 19.1839 40.137C18.7981 38.9613 18.3777 37.3192 18.2412 36.456C18.1294 35.7492 18.0564 35.5743 17.7681 35.323C17.5712 35.1515 17.4605 35.1111 17.1885 35.1113C16.9811 35.1114 16.7649 35.1644 16.6243 35.2495ZM52.5102 35.543C52.0121 35.6949 51.871 35.9481 51.7259 36.9515C51.1582 40.8768 49.8404 44.1474 47.1978 48.1892C47.0387 48.4325 46.9235 48.6316 46.9417 48.6316C47.0057 48.6316 48.2391 46.9606 48.849 46.0478C49.8361 44.5704 50.4674 43.4203 52.2071 39.9303C53.6878 36.9599 53.8416 36.618 53.8081 36.3705C53.7568 35.9906 53.5845 35.7594 53.2357 35.6021C52.9071 35.454 52.824 35.4473 52.5102 35.543ZM34.4817 38.4446C33.4686 38.9753 32.4228 40.8919 31.1898 44.4776C30.9647 45.1324 30.794 45.6816 30.8106 45.6981C30.8272 45.7146 31.0284 45.2584 31.2578 44.6845C32.7928 40.8435 34.1975 38.6814 35.0683 38.8193C35.8025 38.9355 37.1183 41.0598 38.7125 44.7028C39.0362 45.4426 39.5093 46.5097 39.7638 47.0743C40.0184 47.6388 40.365 48.4325 40.5339 48.838C40.9181 49.7598 41.0669 49.918 41.59 49.9611C41.9045 49.987 42.0315 49.9633 42.2288 49.8423C42.6401 49.59 42.8331 48.9615 42.6141 48.5872C42.5656 48.5044 42.2602 48.1221 41.9353 47.7378C40.9177 46.5337 40.1465 45.3111 38.3912 42.1191C37.3407 40.209 36.8439 39.4292 36.3708 38.9483C35.759 38.3265 35.0619 38.1407 34.4817 38.4446ZM29.1231 49.9558C29.0845 50.0567 29.0926 50.0649 29.1631 49.9955C29.2119 49.9474 29.2337 49.8903 29.2118 49.8686C29.1898 49.8468 29.15 49.886 29.1231 49.9558Z" fill="black" />
</svg>