<svg width="237" height="45" viewBox="0 0 237 45" fill="none" xmlns="http://www.w3.org/2000/svg">
    <path fill-rule="evenodd" clip-rule="evenodd" d="M22.1463 37.5385C22.5506 37.6678 22.9249 37.8811 23.246 38.1651C23.5671 38.4491 23.8283 38.7979 24.0133 39.1899C24.4425 40.2124 24.4894 41.3621 24.1449 42.4179C23.9744 42.9272 23.6909 43.3886 23.3171 43.7654C22.9432 44.1423 22.4892 44.4244 21.991 44.5892C20.6952 45.0397 19.3089 44.8341 17.9688 44.8791C17.9688 42.335 17.9688 39.7908 17.9688 37.2466C19.3593 37.296 20.7998 37.0769 22.1463 37.5385ZM20.6017 43.9417C21.014 43.9357 21.4206 43.842 21.7959 43.6665C22.1713 43.491 22.5074 43.2375 22.783 42.9219C23.0535 42.5256 23.2386 42.0744 23.3259 41.5984C23.4132 41.1225 23.4006 40.6328 23.289 40.1623C23.2214 39.8073 23.0728 39.4739 22.8554 39.1897C22.638 38.9054 22.3581 38.6785 22.0387 38.5275C21.068 38.0415 19.9631 38.1996 18.9226 38.1729C18.9193 40.0995 18.9193 42.0262 18.9226 43.9529C19.481 43.9437 20.0424 43.9674 20.6017 43.9417ZM36.918 44.8802C36.5995 44.8802 36.2823 44.8802 35.9638 44.8778C35.9638 42.335 35.9638 39.7912 35.9638 37.2466C36.2813 37.2442 36.5985 37.2442 36.918 37.2466V44.8802ZM55.0087 38.2786C54.8042 38.4821 54.6105 38.6969 54.4286 38.9221C53.8646 38.3875 53.1287 38.086 52.362 38.0754C51.5954 38.0649 50.8519 38.346 50.2741 38.8648C49.0768 40.101 49.1867 42.4711 50.5861 43.5048C51.1356 43.8772 51.7835 44.0659 52.4411 44.0451C53.0987 44.0244 53.7341 43.7952 54.2605 43.3889C54.2582 42.8758 54.2605 42.3627 54.2605 41.8496C53.5886 41.8496 52.9175 41.8496 52.2471 41.8496C52.2471 41.5499 52.2471 41.2512 52.2471 40.9514H55.1821C55.1821 41.9169 55.1821 42.8828 55.1821 43.8492C53.7284 45.2998 51.1708 45.3997 49.6503 44.0033C48.1268 42.5941 48.0429 39.8873 49.4499 38.3625C50.8365 36.765 53.5942 36.6874 55.0087 38.2786ZM67.7845 44.8802C67.466 44.8802 67.1488 44.8802 66.8302 44.8802C66.8316 42.336 66.8316 39.7918 66.8302 37.2476C67.1478 37.2476 67.465 37.2452 67.7845 37.2476V44.8802ZM85.0671 38.1742C84.2067 38.1742 83.3449 38.1776 82.4845 38.1719C82.4726 40.4072 82.4822 42.6425 82.4802 44.8805C82.1617 44.8805 81.8436 44.8805 81.526 44.8805C81.526 42.6452 81.5279 40.4099 81.526 38.1746C80.6731 38.1746 79.8206 38.1746 78.9686 38.1746C78.9663 37.8657 78.9663 37.5558 78.9686 37.2473H85.0658V38.1746L85.0671 38.1742ZM98.4213 37.2469C99.5141 39.7871 100.593 42.3373 101.682 44.8815C101.358 44.8815 101.036 44.8815 100.714 44.8815L100.656 44.8388C100.387 44.2079 100.119 43.5756 99.8477 42.9446C98.6362 42.9402 97.4243 42.948 96.2138 42.9412C95.9354 43.5856 95.6623 44.2327 95.3944 44.8825H94.4007C95.4958 42.3424 96.5724 39.7908 97.6638 37.249C97.915 37.2472 98.1671 37.2463 98.42 37.2463L98.4213 37.2469ZM99.4867 42.0745C98.9774 40.9518 98.5674 39.7742 98.006 38.6816C97.5187 39.8077 97.0541 40.9464 96.5708 42.0745C97.5417 42.0736 98.5132 42.0732 99.4854 42.0732L99.4867 42.0745ZM113.921 43.9542C115.383 43.9529 116.846 43.9529 118.31 43.9542V44.8805C116.53 44.8805 114.748 44.8805 112.966 44.8805C112.966 42.3377 112.966 39.7939 112.966 37.2493C113.283 37.2493 113.601 37.2469 113.921 37.2493C113.92 39.4826 113.919 41.7169 113.919 43.9522L113.921 43.9542ZM145.974 37.2483C147.067 39.7884 148.146 42.3387 149.235 44.8819C148.891 44.8863 148.548 44.8917 148.207 44.8615C147.954 44.2146 147.669 43.5837 147.4 42.9449C146.189 42.9415 144.977 42.9483 143.766 42.9415C143.488 43.5859 143.216 44.2331 142.948 44.8829H141.955C143.05 42.3428 144.126 39.7911 145.218 37.2493C145.468 37.2473 145.719 37.2463 145.973 37.2463L145.974 37.2483ZM147.039 42.0759C146.535 40.9497 146.112 39.7799 145.563 38.6775C145.069 39.8036 144.608 40.9467 144.122 42.0759C145.094 42.0741 146.066 42.0732 147.038 42.0732L147.039 42.0759ZM163.215 37.1538C164.349 37.0522 165.597 37.3638 166.365 38.2813C166.16 38.4874 165.965 38.7026 165.78 38.9268C164.565 37.695 162.236 37.7905 161.281 39.3085C160.531 40.5447 160.668 42.3712 161.756 43.3571C162.306 43.7996 162.983 44.0428 163.681 44.0489C164.379 44.0551 165.06 43.8238 165.618 43.391C165.614 42.8779 165.618 42.3648 165.618 41.8517C164.946 41.8517 164.275 41.8517 163.605 41.8517C163.602 41.5518 163.602 41.2524 163.605 40.9535C164.583 40.9535 165.561 40.9535 166.541 40.9535C166.541 41.9214 166.544 42.889 166.538 43.858C165.799 44.5547 164.843 44.9577 163.841 44.9949C162.839 45.0321 161.857 44.7011 161.071 44.0612C159.755 42.9026 159.454 40.7885 160.226 39.2255C160.511 38.6466 160.935 38.1522 161.458 37.7891C161.981 37.4261 162.585 37.2065 163.214 37.1511L163.215 37.1538ZM183.423 37.2493C183.423 37.5568 183.423 37.8657 183.423 38.1756C181.959 38.1756 180.496 38.1756 179.033 38.1756C179.03 38.9515 179.033 39.7271 179.033 40.504C180.395 40.504 181.757 40.504 183.118 40.504V41.4022C181.756 41.4022 180.395 41.4022 179.033 41.4022C179.033 42.2533 179.03 43.1044 179.033 43.9556C180.523 43.9542 182.013 43.9542 183.503 43.9556C183.502 44.2642 183.502 44.5733 183.503 44.8829C181.695 44.8829 179.887 44.8829 178.079 44.8829C178.079 42.3387 178.079 39.7945 178.079 37.2503C179.858 37.2456 181.639 37.2442 183.421 37.2463L183.423 37.2493ZM200.627 43.0933C200.627 41.1452 200.627 39.1968 200.627 37.2483C200.933 37.2483 201.24 37.2483 201.548 37.2483C201.548 39.7925 201.548 42.337 201.548 44.8819C201.302 44.8819 201.059 44.8819 200.817 44.8873C199.271 42.9483 197.739 40.9982 196.203 39.0514C196.206 40.9948 196.206 42.9386 196.203 44.8829H195.281V37.2463C195.534 37.2463 195.788 37.2463 196.045 37.2463C197.563 39.2011 199.102 41.1411 200.625 43.0906L200.627 43.0933ZM219.649 38.3957C219.442 38.6122 219.228 38.8201 219.004 39.0199C217.902 37.7905 215.73 37.7275 214.67 39.0447C213.696 40.3435 213.818 42.5229 215.164 43.5119C215.785 43.9368 216.533 44.1201 217.274 44.0287C218.014 43.9374 218.699 43.5774 219.205 43.0133C219.379 43.2325 219.563 43.4469 219.751 43.6568C218.543 45.2148 216.158 45.3801 214.575 44.3484C212.852 43.1661 212.59 40.4919 213.672 38.7707C214.926 36.7311 218.15 36.5689 219.648 38.393L219.649 38.3957ZM231.267 37.2493C232.021 38.4865 232.797 39.7105 233.548 40.9531C234.318 39.7183 235.094 38.4855 235.864 37.2493C236.239 37.2459 236.618 37.2467 236.999 37.2517C236.015 38.7683 235.071 40.31 234.097 41.8334C234 42.0122 233.965 42.2197 233.998 42.4217C234.002 43.2413 233.998 44.0622 234.002 44.8829C233.683 44.8829 233.363 44.8829 233.047 44.8829C233.034 43.9173 233.074 42.9493 233.031 41.9861C232.07 40.3974 231.07 38.8313 230.089 37.2527C230.48 37.2442 230.871 37.2442 231.266 37.2463L231.267 37.2493Z" fill="#EAE0D2" />
    <path fill-rule="evenodd" clip-rule="evenodd" d="M17.6011 29.6749C17.6011 27.63 17.6011 25.5859 17.6011 23.5425H20.7225C20.7225 21.6162 20.7225 19.6902 20.7225 17.7646H17.9032C17.9032 18.7964 17.9032 19.8294 17.9032 20.8612C16.8721 20.8612 15.8432 20.8612 14.8121 20.8612C14.8121 19.8215 14.8121 18.7818 14.8121 17.7421C15.8342 17.7421 16.8564 17.7421 17.8785 17.7421C17.8785 15.7985 17.8785 13.855 17.8785 11.9114C18.8265 11.9114 19.7753 11.9114 20.7248 11.9114C20.7248 10.6061 20.7248 9.30052 20.7248 7.99454C18.703 7.99454 16.6901 7.99454 14.6739 7.99454C14.6739 8.65953 14.6739 9.32565 14.6739 9.99064C14.0052 9.99064 13.3369 9.99064 12.669 9.99064C12.669 9.31552 12.669 8.6404 12.669 7.96528C13.3272 7.96528 13.9876 7.96528 14.647 7.96528C14.647 6.64205 14.647 5.31844 14.647 3.99446C13.3553 3.99446 12.0635 3.99446 10.7684 3.99446C10.7684 5.97256 10.7561 7.95066 10.7774 9.92763C8.81289 9.95689 6.84612 9.92762 4.88158 9.94112C4.88158 11.5749 4.88158 13.2042 4.88158 14.8425C3.25364 14.8425 1.62644 14.8425 0 14.8425V9.91412C1.6182 9.91412 3.23716 9.91412 4.85687 9.91412C4.85687 7.93302 4.85687 5.95192 4.85687 3.97082H10.7415C10.7415 2.64683 10.7415 1.32323 10.7415 0H237V29.6839C163.868 29.6786 90.7348 29.6756 17.6011 29.6749ZM101.233 3.7953H24.4932V25.8717H101.233V3.79866V3.7953ZM126.618 9.19624C126.148 8.41492 125.403 7.83779 124.531 7.57822C123.161 7.20779 121.742 7.05889 120.325 7.13714H107.553V21.9785H119.894C121.481 22.093 123.076 21.9385 124.612 21.5217C125.477 21.2447 126.209 20.6541 126.663 19.8654C127.076 18.9976 127.285 18.0464 127.274 17.085C127.274 15.5469 127.274 14.0087 127.274 12.4717C127.339 11.3428 127.115 10.2159 126.622 9.19851L126.618 9.19624ZM145.498 16.0363V12.9702C141.836 12.9702 138.175 12.9702 134.513 12.9702V10.569C138.373 10.569 142.234 10.569 146.094 10.569C146.094 9.43141 146.084 8.29272 146.103 7.15627C140.739 7.13264 135.374 7.15626 130.01 7.14614V21.9875C135.462 21.9875 140.914 21.9875 146.365 21.9875C146.365 20.8106 146.365 19.6332 146.365 18.4555C142.414 18.4555 138.462 18.4555 134.512 18.4555V16.0476C138.177 16.0393 141.841 16.0363 145.503 16.0386L145.498 16.0363ZM153.609 18.2001C153.609 14.5117 153.609 10.824 153.609 7.13714C152.117 7.13714 150.627 7.13714 149.134 7.13714C149.134 12.088 149.134 17.0288 149.134 21.974C154.008 21.9875 158.882 21.974 163.757 21.974C163.765 20.7194 163.743 19.4637 163.769 18.2091C160.384 18.1832 156.999 18.2125 153.613 18.2023L153.609 18.2001ZM184.234 7.13714C182.732 7.13714 181.231 7.13714 179.73 7.13714C179.73 10.1204 179.73 13.1044 179.73 16.0892C179.745 16.4309 179.686 16.7717 179.556 17.0879C179.426 17.4042 179.228 17.6881 178.977 17.9199C178.436 18.2436 177.81 18.3972 177.18 18.361C175.841 18.361 174.501 18.361 173.162 18.361C172.364 18.4549 171.558 18.2769 170.873 17.8558C170.624 17.5685 170.435 17.2341 170.317 16.8723C170.199 16.5105 170.155 16.1286 170.187 15.7494C170.174 12.8768 170.187 10.0041 170.187 7.13151C168.695 7.13151 167.203 7.13151 165.712 7.13151C165.72 10.5071 165.696 13.8827 165.724 17.2583C165.739 18.431 166.136 19.5667 166.855 20.4921C167.668 21.3413 168.752 21.877 169.919 22.0055C170.998 22.1383 172.085 22.1823 173.17 22.1372H178.592C179.681 22.1393 180.759 21.918 181.759 21.4868C182.609 21.0936 183.292 20.4109 183.686 19.5605C184.067 18.6725 184.255 17.7138 184.24 16.7475C184.238 13.5474 184.238 10.3447 184.238 7.13939L184.234 7.13714ZM207.225 7.13714C205.291 7.13714 203.357 7.127 201.423 7.145C199.901 8.88606 198.373 10.6211 196.839 12.3502C195.302 10.6136 193.767 8.8752 192.234 7.13489C190.305 7.13489 188.376 7.13489 186.448 7.13489C188.682 9.61033 190.926 12.0666 193.151 14.5455C190.755 17.0299 188.356 19.5083 185.955 21.9808C187.961 21.9729 189.967 21.9898 191.974 21.9729C193.592 20.1681 195.212 18.3677 196.837 16.5719C198.462 18.3775 200.088 20.1819 201.715 21.9853C203.711 21.98 205.707 21.98 207.702 21.9853C205.32 19.4918 202.91 17.0288 200.513 14.5522C202.747 12.0753 204.988 9.60433 207.234 7.13939L207.225 7.13714ZM224.924 16.0363V12.9702C221.262 12.9702 217.6 12.9702 213.938 12.9702C213.938 12.1675 213.938 11.3653 213.938 10.5634C217.799 10.5634 221.659 10.5634 225.519 10.5634C225.519 9.42242 225.519 8.28034 225.519 7.13939C220.159 7.13939 214.797 7.13939 209.436 7.13939V21.9808C214.889 21.9808 220.341 21.9808 225.792 21.9808C225.792 20.8027 225.792 19.6246 225.792 18.4476C221.841 18.4476 217.889 18.4476 213.938 18.4476C213.938 17.6442 213.938 16.8431 213.938 16.0397C217.604 16.0367 221.268 16.0363 224.929 16.0386L224.924 16.0363ZM122.12 17.6836C121.524 18.0724 120.817 18.2535 120.108 18.199C117.422 18.199 114.737 18.199 112.053 18.199C112.053 15.7355 112.053 13.2717 112.053 10.8075C114.738 10.8075 117.424 10.8075 120.11 10.8075C120.82 10.7513 121.528 10.9326 122.125 11.3229C122.569 11.8139 122.8 12.4614 122.768 13.1232C122.768 14.0717 122.768 15.0214 122.768 15.9699C122.788 16.6046 122.557 17.2214 122.125 17.6859L122.12 17.6836ZM8.21308 12.1791C9.44339 12.1791 10.673 12.1791 11.9018 12.1791C11.9018 13.4112 11.9018 14.6422 11.9018 15.8743C10.6707 15.8743 9.4404 15.8743 8.21083 15.8743C8.21458 14.6426 8.21682 13.4105 8.21757 12.178L8.21308 12.1791ZM7.34596 21.0243C7.34596 21.8637 7.34596 22.7031 7.34596 23.5425H13.4226C13.4226 25.5874 13.4226 27.6315 13.4226 29.6749C11.3873 29.6749 9.3528 29.6749 7.319 29.6749C7.319 27.6394 7.319 25.6028 7.319 23.5684H4.84787C4.84787 22.7193 4.84787 21.8705 4.84787 21.0221C5.6843 21.0228 6.51851 21.0232 7.35045 21.0232L7.34596 21.0243Z" fill="#EAE0D2" />
    <path fill-rule="evenodd" clip-rule="evenodd" d="M33.6284 6.73621C34.6913 10.587 35.7032 14.4557 36.775 18.3046C38.0125 14.4482 39.2567 10.5945 40.5077 6.74371C41.9144 6.74371 43.3214 6.74371 44.7287 6.74371C45.9733 10.6002 47.2187 14.4563 48.465 18.3121C49.5168 14.4594 50.5604 10.6045 51.5957 6.74745C53.0756 6.73902 54.5546 6.74745 56.0354 6.74745C54.4629 11.9943 52.8464 17.2271 51.2802 22.4759C49.5377 22.5012 47.7951 22.4815 46.0517 22.4862C44.898 19.0289 43.7839 15.5528 42.6063 12.1096C41.4737 15.5697 40.3191 19.0223 39.1874 22.4834C37.4463 22.4896 35.7058 22.4896 33.966 22.4834C32.373 17.2365 30.7815 11.9928 29.1914 6.75214C30.6704 6.73434 32.1494 6.75308 33.6284 6.73621ZM73.6898 10.4465C69.8357 10.4465 65.9823 10.4465 62.1294 10.4465V12.8769C65.7863 12.8769 69.445 12.8675 73.1002 12.8835C73.0922 13.96 73.0957 15.0385 73.1002 16.1141C69.4441 16.1234 65.7845 16.1141 62.132 16.1141V18.6607C66.0763 18.6607 70.0197 18.655 73.9648 18.6607C73.9613 19.9311 73.9613 21.2023 73.9648 22.474C68.5089 22.4796 63.0528 22.4796 57.5963 22.474V6.7334H73.6942V10.4371L73.6898 10.4465ZM90.3307 6.74465C91.586 6.69512 92.8238 7.07006 93.866 7.81556C94.2429 8.19648 94.5357 8.66155 94.7232 9.17726C94.9106 9.69296 94.9881 10.2465 94.9501 10.7978C95.0541 11.8251 94.7962 12.8569 94.2264 13.6939C93.8101 14.0832 93.3148 14.365 92.7792 14.5175C93.2229 14.5413 93.6553 14.6743 94.0424 14.906C94.4295 15.1377 94.7608 15.4617 95.01 15.8526C95.4429 16.8737 95.5936 18.0045 95.4446 19.1132C95.4274 19.6095 95.311 20.0963 95.1033 20.5412C94.8956 20.9861 94.6012 21.3789 94.2397 21.6935C93.4253 22.238 92.4769 22.5124 91.5153 22.4815C86.5459 22.4815 81.5763 22.4815 76.6064 22.4815V6.74089C81.1808 6.74339 85.7556 6.74465 90.3307 6.74465ZM81.1447 18.6635H88.8129C89.384 18.71 89.957 18.605 90.4805 18.358C90.6861 18.135 90.8092 17.8407 90.8272 17.529C90.8452 17.2174 90.7568 16.9093 90.5783 16.6612C90.0885 16.3208 89.5033 16.1703 88.9213 16.2349C86.3288 16.2306 83.7363 16.2306 81.1438 16.2349V18.6653L81.1447 18.6635ZM81.1447 12.9922H87.8433C88.4172 13.0147 88.9919 12.994 89.563 12.9303C89.7335 12.9126 89.8961 12.8455 90.0331 12.7363C90.1702 12.6271 90.2765 12.48 90.3404 12.311C90.4132 12.0862 90.4367 11.8467 90.4092 11.6108C90.3817 11.3749 90.3039 11.1487 90.1817 10.9496C89.7905 10.6401 89.3025 10.5016 88.8182 10.5627C86.2604 10.5627 83.7025 10.5627 81.1447 10.5627V12.9931V12.9922Z" fill="#EAE0D2" />
</svg>